<svg xmlns="http://www.w3.org/2000/svg" xmlns:xlink="http://www.w3.org/1999/xlink" version="1.1" width="256" height="256" viewBox="0 0 256 256" xml:space="preserve">
<g style="stroke: none; stroke-width: 0; stroke-dasharray: none; stroke-linecap: butt; stroke-linejoin: miter; stroke-miterlimit: 10; fill: none; fill-rule: nonzero; opacity: 1;" transform="translate(1.4065934065934016 1.4065934065934016) scale(2.81 2.81)">
	<path d="M 45 0 C 28.967 0 14.902 8.392 6.932 21.015 c 2.729 1.97 6.069 3.145 9.693 3.145 h 32.399 c 17.08 0 32.123 8.704 40.948 21.915 C 89.981 45.716 90 45.36 90 45 C 90 20.147 69.853 0 45 0 z" style="stroke: none; stroke-width: 1; stroke-dasharray: none; stroke-linecap: butt; stroke-linejoin: miter; stroke-miterlimit: 10; fill: rgb(40,40,40); fill-rule: nonzero; opacity: 1;" transform=" matrix(1 0 0 1 0 0) " stroke-linecap="round"/>
	<path d="M 90 45 c 0 -1.207 -0.062 -2.399 -0.155 -3.583 C 81.002 27.735 66.02 20.885 49.024 20.885 H 16.625 c -3.159 0 -6.101 -0.494 -8.614 -1.504 C 3.387 26.046 0.51 34.014 0.063 42.629 c 9.023 11.127 22.794 18.247 38.236 18.247 h 0.744 c 9.038 0 13.101 3.942 13.329 12.925 c 0.004 -0.143 0.022 -0.282 0.022 -0.426 c 0 8.417 -3.516 15.355 -11.172 16.456 C 42.469 89.934 43.726 90 45 90 C 69.853 90 90 69.853 90 45 z" style="stroke: none; stroke-width: 1; stroke-dasharray: none; stroke-linecap: butt; stroke-linejoin: miter; stroke-miterlimit: 10; fill: rgb(28,28,28); fill-rule: nonzero; opacity: 1;" transform=" matrix(1 0 0 1 0 0) " stroke-linecap="round"/>
	<path d="M 41.27 89.834 c 7.988 -1.072 14.169 -7.802 14.378 -16.034 c -0.228 -8.983 -7.566 -16.2 -16.604 -16.2 h -0.744 c -15.296 0 -28.947 -6.992 -37.973 -17.938 C 0.119 41.414 0 43.193 0 45 C 0 68.595 18.164 87.936 41.27 89.834 z" style="stroke: none; stroke-width: 1; stroke-dasharray: none; stroke-linecap: butt; stroke-linejoin: miter; stroke-miterlimit: 10; fill: rgb(0,0,0); fill-rule: nonzero; opacity: 1;" transform=" matrix(1 0 0 1 0 0) " stroke-linecap="round"/>
	<path d="M 64.571 51.322 c -0.446 -1.435 -1.054 -3.108 -1.671 -4.715 l -0.001 0 c 0 0 0.001 0 0.001 0 l -2.25 -5.615 c 0.002 -0.066 0.03 -1.171 0.03 -1.741 C 60.68 29.649 56.148 20 45 20 c -11.147 0 -15.68 9.649 -15.68 19.251 c 0 0.571 0.028 1.676 0.03 1.741 l 0.001 0.001 l -0.001 0 l -2.25 5.615 c 0 0 0.001 0 0.001 0 l -0.001 0 c -0.616 1.607 -1.225 3.28 -1.671 4.715 c -2.126 6.842 -1.437 9.673 -0.913 9.737 c 1.125 0.136 4.38 -5.15 4.38 -5.15 c 0 3.062 1.583 7.054 4.995 9.939 c -1.278 0.393 -2.845 0.997 -3.852 1.741 c -0.904 0.666 -0.791 1.346 -0.628 1.62 c 0.714 1.206 12.257 0.77 15.589 0.395 c 3.332 0.375 14.875 0.811 15.589 -0.395 c 0.163 -0.274 0.276 -0.954 -0.627 -1.62 c -1.008 -0.745 -2.577 -1.349 -3.854 -1.742 c 3.412 -2.885 4.994 -6.877 4.994 -9.938 c 0 0 3.255 5.286 4.381 5.15 C 66.008 60.996 66.697 58.164 64.571 51.322 z" style="stroke: none; stroke-width: 1; stroke-dasharray: none; stroke-linecap: butt; stroke-linejoin: miter; stroke-miterlimit: 10; fill: rgb(255,255,255); fill-rule: nonzero; opacity: 1;" transform=" matrix(1 0 0 1 0 0) " stroke-linecap="round"/>
</g>
</svg>